Hanif_Medium_5_0_grf.mot
version=1
nRows=42
nColumns=19
inDegrees=yes
endheader
time	right_ground_force_vx	right_ground_force_vy	right_ground_force_vz	right_ground_force_px	right_ground_force_py	right_ground_force_pz	right_ground_torque_x	right_ground_torque_y	right_ground_torque_z	left_ground_force_vx	left_ground_force_vy	left_ground_force_vz	left_ground_force_px	left_ground_force_py	left_ground_force_pz	left_ground_torque_x	left_ground_torque_y	left_ground_torque_z
2.315000	-9.083090	235.078000	43.562900	0.257254	0.000000	-1.406280	-23.394100	-4.622940	13.232500	-3.101060	182.424000	-37.078600	0.258844	0.000000	-0.994685	16.758800	0.504122	11.133300
2.320000	-9.152990	235.033000	42.932300	0.257509	0.000000	-1.404990	-23.691900	-4.631720	13.290300	-2.495900	184.804000	-37.264300	0.257162	0.000000	-0.993036	16.664100	0.495853	10.938600
2.325000	-8.888610	235.551000	42.461600	0.257278	0.000000	-1.406530	-23.379200	-4.650490	13.251400	-3.233010	184.964000	-36.957400	0.257495	0.000000	-0.994121	16.888200	0.466483	11.024800
2.330000	-8.973450	238.818000	41.510000	0.256203	0.000000	-1.407340	-23.504800	-4.746890	13.156700	-3.046370	186.940000	-37.067200	0.257666	0.000000	-0.994958	17.222200	0.489691	11.162400
2.335000	-8.952350	240.361000	42.006400	0.256849	0.000000	-1.406950	-23.753400	-4.760320	13.404800	-2.965380	191.863000	-37.130800	0.257714	0.000000	-0.992736	17.246400	0.511383	11.440400
2.340000	-8.455840	242.634000	41.497800	0.256703	0.000000	-1.406970	-23.971400	-4.844510	13.475100	-3.183480	193.002000	-37.333700	0.256713	0.000000	-0.993464	17.491200	0.505027	11.313300
2.345000	-8.189500	245.519000	41.223000	0.255916	0.000000	-1.406660	-24.335100	-4.749000	13.454800	-3.404610	195.028000	-37.385200	0.257318	0.000000	-0.994685	17.914700	0.533217	11.547000
2.350000	-8.568070	248.146000	41.417300	0.256702	0.000000	-1.406800	-24.556000	-4.921830	13.782800	-3.243640	198.085000	-37.336700	0.255038	0.000000	-0.992242	17.708800	0.432261	11.262700
2.355000	-8.360380	249.720000	41.655700	0.256289	0.000000	-1.405370	-25.070400	-4.914840	13.768000	-3.453700	199.274000	-36.714500	0.255996	0.000000	-0.992003	17.769600	0.427800	11.515100
2.360000	-8.605210	254.196000	42.215300	0.257025	0.000000	-1.407000	-25.109800	-4.897540	14.223500	-3.291700	201.693000	-37.569900	0.255039	0.000000	-0.991380	17.858500	0.344165	11.476200
2.365000	-7.997970	257.830000	43.070100	0.256265	0.000000	-1.406740	-25.541800	-4.837940	14.236100	-3.190400	203.648000	-38.257600	0.254445	0.000000	-0.990976	17.948500	0.295937	11.476100
2.370000	-6.929510	262.559000	44.016600	0.256268	0.000000	-1.407030	-25.941600	-4.821570	14.495600	-3.170930	206.233000	-39.105200	0.254320	0.000000	-0.991049	18.190900	0.295114	11.602400
2.375000	-6.505180	265.988000	45.137600	0.256304	0.000000	-1.407120	-26.259100	-4.853850	14.692900	-3.213830	209.468000	-38.896700	0.252400	0.000000	-0.991091	18.483100	0.312018	11.349200
2.380000	-6.874310	271.246000	45.819200	0.254914	0.000000	-1.408320	-26.453300	-4.830690	14.617700	-3.514440	211.486000	-39.208500	0.253119	0.000000	-0.989538	18.336300	0.291120	11.622500
2.385000	-6.100660	274.681000	46.839200	0.255729	0.000000	-1.408600	-26.715600	-4.877770	15.022300	-2.828190	215.196000	-39.968200	0.252670	0.000000	-0.989270	18.593300	0.199050	11.733700
2.390000	-6.427480	276.342000	47.309900	0.255029	0.000000	-1.407680	-27.130800	-4.968990	14.909900	-3.050360	215.892000	-40.551300	0.251601	0.000000	-0.988684	18.529900	0.132939	11.557400
2.395000	-6.395970	276.584000	47.716900	0.255951	0.000000	-1.408170	-27.019300	-4.937810	15.191900	-2.109260	221.840000	-41.540800	0.249898	0.000000	-0.987600	18.788300	0.086074	11.474900
2.400000	-6.722100	277.250000	48.754300	0.256371	0.000000	-1.407200	-27.357600	-4.893730	15.368300	-1.702500	224.255000	-42.124100	0.249410	0.000000	-0.987784	19.030100	-0.013644	11.501100
2.405000	-6.438170	281.648000	49.259900	0.255117	0.000000	-1.407960	-27.574600	-4.975830	15.238600	-1.472760	225.184000	-42.965200	0.249042	0.000000	-0.987198	18.974800	-0.047682	11.478200
2.410000	-7.203680	282.139000	49.601200	0.255789	0.000000	-1.408870	-27.363400	-5.014270	15.468300	-1.239450	228.636000	-43.816800	0.248995	0.000000	-0.986236	19.043200	-0.039507	11.640900
2.415000	-7.467270	285.199000	50.304500	0.256179	0.000000	-1.407360	-28.091700	-5.050120	15.759700	-0.387560	229.736000	-44.408200	0.248559	0.000000	-0.986306	19.142200	-0.133536	11.604600
2.420000	-7.139430	286.722000	50.983700	0.255540	0.000000	-1.408730	-27.851100	-5.108780	15.643000	-0.439062	231.263000	-45.258200	0.247749	0.000000	-0.986726	19.367000	-0.117524	11.495700
2.425000	-7.911960	289.191000	51.791700	0.255983	0.000000	-1.410040	-27.710700	-5.087750	15.933700	-0.222430	236.653000	-45.733400	0.246060	0.000000	-0.984289	19.239500	-0.204268	11.350200
2.430000	-7.668520	290.539000	52.246700	0.255366	0.000000	-1.409240	-28.073200	-5.163930	15.811100	-0.389188	237.366000	-46.523700	0.247089	0.000000	-0.984419	19.330200	-0.289231	11.669700
2.435000	-8.570780	291.612000	52.533800	0.255250	0.000000	-1.409000	-28.245200	-5.090100	15.867300	-0.281711	240.511000	-47.409100	0.246308	0.000000	-0.984481	19.600000	-0.165782	11.607600
2.440000	-8.160320	291.850000	52.336200	0.255378	0.000000	-1.409970	-27.987200	-5.086460	15.910300	0.142528	242.396000	-48.370700	0.245305	0.000000	-0.983532	19.519100	-0.311937	11.479100
2.445000	-7.788880	291.168000	52.578200	0.255032	0.000000	-1.409160	-28.158900	-5.067480	15.767200	1.079520	245.272000	-49.379300	0.245175	0.000000	-0.983768	19.799100	-0.348253	11.581900
2.450000	-7.330790	291.917000	52.317900	0.255019	0.000000	-1.410160	-27.939100	-5.106510	15.787500	0.973386	246.756000	-49.741900	0.244480	0.000000	-0.983428	19.836100	-0.402000	11.486800
2.455000	-7.808050	291.618000	52.275900	0.255207	0.000000	-1.410280	-27.874200	-5.101430	15.836300	1.000830	245.795000	-49.719000	0.244145	0.000000	-0.983785	19.846300	-0.404645	11.360000
2.460000	-7.804480	292.679000	52.297500	0.254402	0.000000	-1.411020	-27.758400	-5.067670	15.657700	1.161540	247.937000	-49.911000	0.244468	0.000000	-0.982274	19.643100	-0.408831	11.535800
2.465000	-7.467660	290.535000	52.048000	0.254110	0.000000	-1.409980	-27.858000	-5.083240	15.443300	0.579793	249.529000	-50.290600	0.243224	0.000000	-0.982227	19.763200	-0.495042	11.314200
2.470000	-6.920040	291.111000	51.862200	0.254528	0.000000	-1.410050	-27.896200	-4.991060	15.606600	0.527397	251.742000	-50.048800	0.243604	0.000000	-0.982063	19.897900	-0.479105	11.497900
2.475000	-7.805940	289.680000	50.868500	0.254549	0.000000	-1.408920	-28.083100	-4.989730	15.546000	0.861736	254.393000	-50.468900	0.243027	0.000000	-0.981938	20.072500	-0.493510	11.461100
2.480000	-8.174410	288.040000	50.495000	0.255083	0.000000	-1.408690	-27.987100	-5.016790	15.613800	0.743085	254.420000	-50.059000	0.242922	0.000000	-0.982633	20.252500	-0.587008	11.446900
2.485000	-8.636400	289.861000	50.060400	0.254947	0.000000	-1.411070	-27.474000	-5.017160	15.677000	0.309588	255.079000	-49.938800	0.242755	0.000000	-0.982164	20.189900	-0.588077	11.434300
2.490000	-8.762050	287.911000	49.933700	0.254719	0.000000	-1.408790	-27.946500	-4.974110	15.513200	0.974960	257.525000	-49.999800	0.242498	0.000000	-0.982247	20.397700	-0.659917	11.470000
2.495000	-9.084690	287.083000	49.258900	0.255349	0.000000	-1.410080	-27.491800	-4.990960	15.650600	0.228943	258.104000	-50.013700	0.243273	0.000000	-0.981951	20.375200	-0.688483	11.718300
2.500000	-10.089600	286.069000	48.992700	0.255584	0.000000	-1.410610	-27.238000	-5.066710	15.664200	0.059832	261.451000	-50.384900	0.242443	0.000000	-0.981707	20.577300	-0.646242	11.632600
2.505000	-10.263700	284.720000	48.639700	0.255625	0.000000	-1.409450	-27.436300	-5.198420	15.581100	0.393967	263.023000	-50.565800	0.243332	0.000000	-0.982550	20.919300	-0.641721	11.936000
2.510000	-11.154000	283.204000	48.142300	0.256134	0.000000	-1.408820	-27.468900	-5.139710	15.667400	0.520184	265.206000	-51.097900	0.244107	0.000000	-0.982731	21.139600	-0.592885	12.238000
2.515000	-11.726700	284.392000	47.954700	0.256726	0.000000	-1.409420	-27.414100	-5.158280	15.912300	0.449569	266.300000	-51.468500	0.243856	0.000000	-0.982850	21.259400	-0.586423	12.221400
2.520000	-12.280000	284.971000	47.765800	0.256631	0.000000	-1.408770	-27.650800	-5.196920	15.920800	0.004457	269.172000	-51.822700	0.244246	0.000000	-0.982249	21.331600	-0.644322	12.475100
